<?xml version="1.0" encoding="UTF-8" standalone="no"?>
<!-- Created with Inkscape (http://www.inkscape.org/) -->

<svg
   width="44.581173mm"
   height="49.734856mm"
   viewBox="0 0 44.581173 49.734856"
   version="1.1"
   id="svg1"
   inkscape:version="1.3 (0e150ed6c4, 2023-07-21)"
   sodipodi:docname="attack.svg"
   xmlns:inkscape="http://www.inkscape.org/namespaces/inkscape"
   xmlns:sodipodi="http://sodipodi.sourceforge.net/DTD/sodipodi-0.dtd"
   xmlns:xlink="http://www.w3.org/1999/xlink"
   xmlns="http://www.w3.org/2000/svg"
   xmlns:svg="http://www.w3.org/2000/svg">
  <sodipodi:namedview
     id="namedview1"
     pagecolor="#ffffff"
     bordercolor="#000000"
     borderopacity="0.25"
     inkscape:showpageshadow="2"
     inkscape:pageopacity="0.0"
     inkscape:pagecheckerboard="0"
     inkscape:deskcolor="#d1d1d1"
     inkscape:document-units="mm"
     inkscape:zoom="1.4627806"
     inkscape:cx="133.30776"
     inkscape:cy="132.96594"
     inkscape:window-width="1920"
     inkscape:window-height="1017"
     inkscape:window-x="-8"
     inkscape:window-y="-8"
     inkscape:window-maximized="1"
     inkscape:current-layer="layer1"
     showguides="true">
    <sodipodi:guide
       position="5.2881514,352.0802"
       orientation="0,-1"
       id="guide16"
       inkscape:locked="false" />
    <sodipodi:guide
       position="35.132856,352.0802"
       orientation="0,-1"
       id="guide17"
       inkscape:locked="false" />
  </sodipodi:namedview>
  <defs
     id="defs1">
    <linearGradient
       id="linearGradient6"
       inkscape:collect="always">
      <stop
         style="stop-color:#008000;stop-opacity:0.71244597;"
         offset="0"
         id="stop6" />
      <stop
         style="stop-color:#008000;stop-opacity:0;"
         offset="1"
         id="stop7" />
    </linearGradient>
    <radialGradient
       inkscape:collect="always"
       xlink:href="#linearGradient6"
       id="radialGradient7"
       cx="93.694275"
       cy="180.15347"
       fx="93.694275"
       fy="180.15347"
       r="13.091825"
       gradientUnits="userSpaceOnUse" />
  </defs>
  <g
     inkscape:label="Слой 1"
     inkscape:groupmode="layer"
     id="layer1"
     transform="translate(-69.775793,-156.3713)">
    <path
       sodipodi:type="star"
       style="opacity:0.614148;fill:#008000;fill-opacity:0.84946197;stroke:#000000;stroke-width:0.287512;stroke-dasharray:none;stroke-opacity:1;paint-order:fill markers stroke"
       id="path5"
       inkscape:flatsided="true"
       sodipodi:sides="8"
       sodipodi:cx="128.0609"
       sodipodi:cy="80.30938"
       sodipodi:r1="23.62439"
       sodipodi:r2="18.870691"
       sodipodi:arg1="1.1779514"
       sodipodi:arg2="1.5706505"
       inkscape:rounded="0.1"
       inkscape:randomized="0"
       d="m 137.10474,102.13415 c -1.67039,0.69219 -16.41072,0.69434 -18.08132,0.003 -1.6706,-0.6917 -12.09511,-11.113169 -12.78729,-12.783565 -0.69219,-1.670395 -0.69434,-16.410727 -0.003,-18.081325 0.6917,-1.670597 11.11317,-12.095106 12.78356,-12.787292 1.6704,-0.692186 16.41073,-0.694336 18.08133,-0.0026 1.67059,0.691699 12.0951,11.113167 12.78729,12.783563 0.69219,1.670396 0.69433,16.410727 0.003,18.081325 -0.6917,1.670597 -11.11317,12.095101 -12.78357,12.787291 z"
       inkscape:transform-center-x="1.0385952e-06"
       transform="matrix(0.9911859,0,0,1.1057692,-34.865777,92.435093)"
       inkscape:transform-center-y="-2.0325607e-06" />
    <path
       sodipodi:type="star"
       style="opacity:1;fill:url(#radialGradient7);fill-opacity:0.712446;stroke:#000000;stroke-width:0.114656;stroke-dasharray:none;stroke-opacity:1;paint-order:fill markers stroke"
       id="path7"
       inkscape:flatsided="true"
       sodipodi:sides="8"
       sodipodi:cx="93.694275"
       sodipodi:cy="180.15347"
       sodipodi:r1="13.77518"
       sodipodi:r2="12.726607"
       sodipodi:arg1="1.1659045"
       sodipodi:arg2="1.5586036"
       inkscape:rounded="0.1"
       inkscape:randomized="0"
       d="m 99.120585,192.81486 c -0.969061,0.41531 -9.563384,0.52011 -10.542283,0.12855 -0.978899,-0.39156 -7.130103,-6.39457 -7.545415,-7.36363 -0.415312,-0.96906 -0.520105,-9.56338 -0.128546,-10.54228 0.39156,-0.9789 6.394564,-7.1301 7.363624,-7.54541 0.969061,-0.41532 9.563384,-0.52011 10.542283,-0.12855 0.978899,0.39156 7.130102,6.39456 7.545412,7.36362 0.41531,0.96906 0.52011,9.56339 0.12855,10.54229 -0.39156,0.97889 -6.39456,7.1301 -7.363625,7.54541 z"
       transform="matrix(0.99915974,0,0,1.1518044,-1.3682879,-25.720206)"
       inkscape:transform-center-y="-1.1351632e-05" />
    <path
       style="opacity:1;fill:#0131b0;fill-opacity:0.849462;stroke:#000000;stroke-width:0.123;stroke-dasharray:none;stroke-opacity:1;paint-order:fill markers stroke"
       d="m 104.54689,176.17418 c 9.4056,-4.34105 9.4056,-4.34105 9.4056,-4.34105"
       id="path9" />
    <path
       style="opacity:1;fill:#0131b0;fill-opacity:0.849462;stroke:#000000;stroke-width:0.123;stroke-dasharray:none;stroke-opacity:1;paint-order:fill markers stroke"
       d="m 105.2704,187.7503 c 8.32034,3.9793 8.32034,3.9793 8.32034,3.9793 v -0.36176"
       id="path10" />
    <path
       style="opacity:1;fill:#0131b0;fill-opacity:0.849462;stroke:#000000;stroke-width:0.123;stroke-dasharray:none;stroke-opacity:1;paint-order:fill markers stroke"
       d="M 97.492692,196.25152 C 100.5676,205.838 100.5676,205.838 100.5676,205.838"
       id="path11" />
    <path
       style="opacity:1;fill:#0131b0;fill-opacity:0.849462;stroke:#000000;stroke-width:0.123;stroke-dasharray:none;stroke-opacity:1;paint-order:fill markers stroke"
       d="m 87.363579,196.07064 c -4.16017,9.4056 -4.16017,9.4056 -4.16017,9.4056"
       id="path12" />
    <path
       style="opacity:1;fill:#0131b0;fill-opacity:0.849462;stroke:#000000;stroke-width:0.123;stroke-dasharray:none;stroke-opacity:1;paint-order:fill markers stroke"
       d="M 87.182702,167.13033 C 83.384286,157.00122 83.384286,157.00122 83.384286,157.00122"
       id="path13" />
    <path
       style="opacity:1;fill:#0131b0;fill-opacity:0.849462;stroke:#000000;stroke-width:0.123;stroke-dasharray:none;stroke-opacity:1;paint-order:fill markers stroke"
       d="m 79.224115,175.63154 c -8.86297,-4.34104 -8.86297,-4.34104 -8.86297,-4.34104"
       id="path14" />
    <path
       style="opacity:1;fill:#0131b0;fill-opacity:0.849462;stroke:#000000;stroke-width:0.123;stroke-dasharray:none;stroke-opacity:1;paint-order:fill markers stroke"
       d="m 79.404992,187.93118 c -9.224724,3.07491 -9.224724,3.07491 -9.224724,3.07491"
       id="path15" />
    <path
       style="opacity:1;fill:#0131b0;fill-opacity:0.849462;stroke:#000000;stroke-width:0.123;stroke-dasharray:none;stroke-opacity:1;paint-order:fill markers stroke"
       d="m 97.130938,166.94945 c 3.617542,-9.76736 3.617542,-9.76736 3.617542,-9.76736"
       id="path16" />
  </g>
  <g
     inkscape:groupmode="layer"
     id="layer2"
     inkscape:label="Слой 2"
     transform="translate(-69.775793,-156.3713)" />
</svg>
